<?xml version="1.0" standalone="no"?>
<!DOCTYPE svg PUBLIC "-//W3C//DTD SVG 20010904//EN"
 "http://www.w3.org/TR/2001/REC-SVG-20010904/DTD/svg10.dtd">
<svg version="1.0" xmlns="http://www.w3.org/2000/svg"
 width="740.000000pt" height="740.000000pt" viewBox="0 0 740.000000 740.000000"
 preserveAspectRatio="xMidYMid meet">

<g transform="translate(0.000000,740.000000) scale(0.100000,-0.100000)"
fill="#000000" stroke="none">
<path d="M5439 6462 c-43 -21 -69 -72 -69 -135 0 -184 -177 -392 -373 -437
-23 -5 -195 -10 -382 -10 -187 0 -372 -5 -411 -10 -269 -35 -496 -224 -581
-485 -21 -65 -27 -106 -31 -217 l-5 -138 -126 0 c-194 0 -201 -9 -201 -274 l0
-175 -67 26 c-167 63 -236 86 -358 118 -71 19 -139 35 -150 35 -19 0 -20 7
-20 118 0 111 -2 120 -32 185 -42 89 -121 168 -210 210 -67 31 -71 32 -208 32
-210 -1 -453 -47 -696 -131 -137 -47 -189 -76 -248 -139 -136 -144 -157 -325
-60 -517 l31 -62 -23 -16 c-60 -40 -189 -150 -271 -233 -338 -342 -581 -870
-664 -1442 -24 -167 -25 -500 -1 -652 29 -188 91 -415 141 -517 80 -165 259
-377 403 -477 260 -179 587 -234 856 -143 359 122 735 499 969 972 68 138 98
176 143 188 11 3 88 -4 171 -15 473 -65 915 -68 1379 -10 261 33 247 32 284
11 29 -16 48 -45 115 -178 133 -263 255 -434 441 -619 132 -130 263 -227 400
-295 153 -75 234 -95 390 -94 180 0 303 28 459 105 538 266 800 1000 655 1835
-23 137 -57 267 -111 433 -119 366 -335 717 -585 951 -59 55 -195 165 -240
195 -2 1 11 28 27 61 50 96 63 156 58 254 -7 108 -45 196 -119 270 -62 62
-127 96 -289 149 -318 104 -663 147 -813 101 -120 -37 -229 -141 -274 -262
-15 -42 -23 -174 -13 -232 5 -29 4 -29 -60 -42 -101 -21 -226 -59 -387 -117
l-148 -54 -5 193 -5 194 -28 27 c-27 27 -31 28 -160 33 l-132 5 0 101 c1 124
24 214 75 292 47 72 122 143 189 176 102 52 137 56 517 56 388 0 449 6 573 58
238 100 408 336 428 592 4 59 2 83 -11 108 -27 52 -83 71 -137 44z m-3089
-1393 c71 -41 118 -134 105 -208 -13 -76 -3 -71 -143 -71 -265 -1 -548 -64
-799 -180 -47 -22 -87 -40 -88 -40 -1 0 -14 26 -29 59 -49 109 -27 222 56 281
82 60 445 157 668 179 118 11 184 6 230 -20z m2995 10 c190 -24 500 -108 581
-158 67 -41 113 -137 99 -210 -5 -27 -46 -123 -60 -139 -1 -1 -44 17 -96 41
-247 114 -466 165 -746 174 l-171 6 -6 30 c-19 94 6 173 69 224 67 54 116 59
330 32z m-1435 -409 c0 -134 -2 -151 -17 -158 -10 -4 -99 -7 -198 -7 -99 0
-188 3 -197 7 -16 7 -18 24 -18 158 l0 150 215 0 215 0 0 -150z m-1420 -101
c150 -14 276 -41 430 -94 69 -24 197 -68 285 -99 226 -78 296 -91 495 -91 225
0 304 18 660 150 291 107 451 139 705 138 267 -1 493 -51 732 -163 440 -207
785 -611 964 -1128 183 -532 204 -1017 63 -1442 -142 -426 -465 -690 -843
-690 -53 0 -122 7 -154 15 -147 38 -307 138 -467 292 -183 176 -307 348 -432
601 -67 135 -89 170 -130 207 -93 84 -181 99 -392 70 -465 -65 -854 -69 -1306
-12 -96 12 -220 22 -275 22 -90 0 -105 -3 -153 -28 -87 -46 -123 -91 -205
-259 -190 -386 -468 -694 -752 -834 -131 -64 -195 -78 -335 -71 -135 7 -205
24 -317 78 -116 56 -216 139 -317 266 -114 141 -156 229 -201 416 -65 276 -81
516 -50 777 76 649 375 1218 812 1547 255 192 530 294 908 337 65 7 165 5 275
-5z"/>
<path d="M1744 4041 c-62 -28 -119 -85 -145 -144 -19 -43 -24 -73 -27 -178
l-4 -127 -127 -4 c-114 -3 -133 -6 -183 -31 -64 -32 -111 -80 -142 -146 -18
-39 -21 -65 -21 -171 0 -109 3 -131 23 -175 30 -66 83 -118 146 -146 42 -19
73 -24 179 -27 l127 -4 0 -113 c0 -78 5 -129 17 -165 22 -68 87 -141 155 -171
47 -21 67 -24 178 -24 105 0 132 4 171 21 65 30 115 78 144 139 23 49 25 65
25 183 l0 130 133 4 c125 3 137 5 192 33 66 34 125 101 144 165 6 20 11 91 11
157 0 114 -2 123 -31 181 -32 65 -80 111 -146 139 -26 11 -79 18 -170 21
l-132 5 -3 136 c-3 153 -14 187 -78 251 -65 65 -98 75 -255 78 -121 2 -146 0
-181 -17z m276 -211 c12 -7 16 -41 20 -162 6 -158 17 -203 59 -236 14 -11 14
-11 -4 -6 -11 3 -2 -4 20 -16 22 -11 44 -25 49 -30 6 -6 71 -10 147 -10 134 0
186 -9 201 -33 4 -7 8 -51 8 -98 0 -127 5 -124 -188 -124 -88 0 -156 -3 -150
-6 5 -4 -4 -11 -21 -17 -26 -9 -31 -8 -31 4 0 8 -4 13 -10 9 -5 -3 -6 -13 -3
-21 3 -9 -5 -27 -19 -42 -46 -49 -52 -71 -56 -222 -2 -80 -8 -152 -13 -160 -7
-13 -8 -12 -9 3 0 9 -4 17 -9 17 -6 0 -8 -9 -6 -20 4 -19 -2 -20 -90 -20 -128
0 -128 -1 -124 199 2 83 -1 151 -6 150 -4 0 -16 17 -26 38 -16 35 -43 57 -89
71 -8 3 -84 7 -168 11 -189 7 -192 9 -192 130 0 119 3 121 158 121 70 0 145 5
167 12 22 6 51 10 65 10 17 -1 21 1 12 6 -10 7 -9 12 4 23 15 12 17 12 9 0 -5
-10 -4 -12 3 -7 7 4 12 12 12 17 0 17 46 79 53 72 4 -3 7 -1 7 5 0 7 -3 12 -7
12 -15 0 1 296 16 314 11 13 32 16 105 16 50 0 98 -5 106 -10z"/>
<path d="M1805 3799 c-4 -6 -5 -12 -2 -15 2 -3 7 2 10 11 7 17 1 20 -8 4z"/>
<path d="M2050 3460 c0 -11 4 -20 9 -20 5 0 7 9 4 20 -3 11 -7 20 -9 20 -2 0
-4 -9 -4 -20z"/>
<path d="M2120 3376 c0 -2 9 -6 20 -9 11 -3 18 -1 14 4 -5 9 -34 13 -34 5z"/>
<path d="M1660 3360 c20 -13 40 -13 40 0 0 6 -12 10 -27 10 -22 0 -25 -2 -13
-10z"/>
<path d="M1342 3151 c-11 -7 -11 -9 0 -14 9 -3 15 1 15 9 0 8 -1 14 -1 14 -1
0 -7 -4 -14 -9z"/>
<path d="M2486 3145 c4 -8 7 -15 9 -15 2 0 5 7 9 15 3 9 0 15 -9 15 -9 0 -12
-6 -9 -15z"/>
<path d="M1645 3140 c11 -5 27 -9 35 -9 9 0 8 4 -5 9 -11 5 -27 9 -35 9 -9 0
-8 -4 5 -9z"/>
<path d="M1640 3119 c0 -4 16 -9 35 -11 19 -2 35 -1 35 3 0 4 -16 9 -35 11
-19 2 -35 1 -35 -3z"/>
<path d="M2086 3074 c-4 -9 -4 -19 -1 -22 3 -3 5 0 5 7 0 7 5 9 10 6 6 -3 10
-2 10 4 0 18 -18 21 -24 5z"/>
<path d="M2040 3042 c0 -4 4 -13 9 -20 7 -11 9 -11 14 1 3 9 -1 18 -9 21 -8 3
-14 2 -14 -2z"/>
<path d="M1817 2663 c3 -7 6 -13 8 -13 2 0 5 6 8 13 3 8 -1 14 -8 14 -7 0 -11
-6 -8 -14z"/>
<path d="M4706 4039 c-113 -27 -224 -121 -279 -237 -30 -62 -32 -75 -32 -172
0 -97 2 -110 32 -172 55 -117 139 -190 264 -229 205 -64 430 48 512 254 28 69
29 209 3 284 -24 73 -95 165 -158 208 -97 65 -230 90 -342 64z m194 -231 c26
-14 57 -41 75 -66 26 -38 30 -52 30 -112 0 -60 -4 -74 -30 -111 -81 -115 -240
-117 -329 -6 -29 36 -31 45 -31 117 0 72 2 81 31 117 67 82 165 106 254 61z"/>
<path d="M5771 3994 c-211 -57 -347 -264 -311 -473 24 -138 113 -255 237 -313
86 -41 205 -50 296 -23 126 36 245 154 282 277 20 68 19 191 -2 254 -49 145
-174 256 -322 284 -71 13 -114 12 -180 -6z m182 -218 c136 -59 167 -245 56
-340 -89 -76 -211 -68 -286 18 -88 99 -61 251 56 313 51 27 124 31 174 9z"/>
<path d="M3179 3661 c-43 -43 -41 -101 5 -147 l34 -34 474 0 c451 0 474 1 505
20 41 25 58 79 39 125 -29 67 -9 65 -544 65 l-484 0 -29 -29z"/>
<path d="M3123 3105 c-33 -14 -63 -59 -63 -95 0 -34 28 -79 60 -95 26 -14 102
-15 591 -13 l561 3 29 33 c50 56 36 133 -31 167 -42 21 -1098 22 -1147 0z"/>
<path d="M5201 3105 c-208 -46 -355 -258 -322 -466 23 -141 113 -262 239 -322
63 -30 74 -32 177 -32 103 0 114 2 177 32 127 60 218 184 238 323 30 215 -113
420 -326 465 -83 18 -100 17 -183 0z m186 -229 c116 -55 148 -213 61 -312 -77
-87 -199 -96 -285 -21 -74 65 -92 156 -48 244 52 103 163 139 272 89z"/>
</g>
</svg>
